<?xml version="1.0" standalone="no"?>
<!DOCTYPE svg PUBLIC "-//W3C//DTD SVG 20010904//EN"
        "http://www.w3.org/TR/2001/REC-SVG-20010904/DTD/svg10.dtd">
<svg version="1.0" xmlns="http://www.w3.org/2000/svg"
     width="512.000000pt" height="512.000000pt" viewBox="0 0 512.000000 512.000000"
     preserveAspectRatio="xMidYMid meet">

    <g transform="translate(0.000000,512.000000) scale(0.100000,-0.100000)"
       fill="#000000" stroke="none">
        <path d="M932 5104 c-468 -78 -840 -454 -917 -925 -23 -142 -23 -3096 0 -3238
78 -476 451 -849 930 -926 135 -22 3082 -22 3228 0 455 69 806 400 924 874 15
60 17 215 20 1606 3 1021 1 1570 -6 1630 -16 133 -46 237 -105 360 -161 336
-462 560 -829 620 -132 21 -3117 21 -3245 -1z m3198 -275 c178 -28 324 -104
456 -234 137 -135 214 -282 244 -467 14 -88 14 -3049 -1 -3138 -56 -353 -333
-634 -684 -695 -76 -13 -290 -15 -1585 -15 -1307 0 -1509 2 -1586 15 -349 61
-627 345 -683 695 -15 90 -15 3050 0 3140 29 178 104 324 234 456 131 132 269
207 440 239 91 17 3062 21 3165 4z"/>
    </g>
</svg>
