<svg xmlns="http://www.w3.org/2000/svg">

<g id="format">
        <path d="M932 5104 c-468 -78 -840 -454 -917 -925 -23 -142 -23 -3096 0 -3238
78 -476 451 -849 930 -926 135 -22 3082 -22 3228 0 455 69 806 400 924 874 15
60 17 215 20 1606 3 1021 1 1570 -6 1630 -16 133 -46 237 -105 360 -161 336
-462 560 -829 620 -132 21 -3117 21 -3245 -1z m3198 -275 c178 -28 324 -104
456 -234 137 -135 214 -282 244 -467 14 -88 14 -3049 -1 -3138 -56 -353 -333
-634 -684 -695 -76 -13 -290 -15 -1585 -15 -1307 0 -1509 2 -1586 15 -349 61
-627 345 -683 695 -15 90 -15 3050 0 3140 29 178 104 324 234 456 131 132 269
207 440 239 91 17 3062 21 3165 4z"/>
    </g>

    <g id="location">
        <path d="M4335 12789 c-1496 -104 -2843 -915 -3635 -2190 -232 -373 -414 -787
        -529 -1204 -305 -1107 -197 -2278 305 -3295 191 -387 372 -660 676 -1020 34
        -41 753 -976 1596 -2077 918 -1199 1555 -2022 1588 -2052 186 -170 442 -170
        628 0 33 30 670 853 1588 2052 843 1101 1562 2036 1596 2077 304 360 485 633
        676 1020 566 1147 629 2502 174 3695 -353 923 -967 1689 -1798 2242 -825 549
        -1864 821 -2865 752z m559 -2254 c224 -29 398 -81 601 -180 553 -268 931 -756
        1062 -1374 25 -116 27 -145 28 -366 0 -267 -10 -345 -70 -555 -161 -561 -586
        -1032 -1130 -1253 -201 -82 -365 -120 -592 -139 -294 -25 -593 23 -878 139
        -544 221 -969 692 -1130 1253 -60 210 -70 288 -70 555 1 221 3 250 28 366 112
        527 406 965 842 1252 177 116 437 227 637 271 209 46 467 58 672 31z"
        />
    </g>

    <g id="building">
        <path d="M100 315 c0 -103 4 -165 10 -165 6 0 10 58 10 155 l0 155 160 0 160
0 -2 -201 c-3 -180 -5 -203 -21 -213 -28 -18 -52 4 -55 53 l-3 41 -160 0 -159
0 0 -40 c0 -27 7 -47 20 -60 18 -18 33 -20 190 -20 228 0 210 -21 210 250 l0
210 -180 0 -180 0 0 -165z m240 -219 c0 -13 3 -31 6 -40 5 -14 -10 -16 -128
-16 -145 0 -158 4 -158 52 l0 28 140 0 140 0 0 -24z"
        />
    </g>

    <g id="billboard">
        <path d="M120 466 c0 -8 -3 -21 -6 -30 -4 -12 0 -16 16 -16 16 0 20 4 16 16
-3 9 -6 22 -6 30 0 8 -4 14 -10 14 -5 0 -10 -6 -10 -14z"
        />
        <path d="M240 466 c0 -8 -3 -21 -6 -30 -4 -12 0 -16 16 -16 16 0 20 4 16 16
-3 9 -6 22 -6 30 0 8 -4 14 -10 14 -5 0 -10 -6 -10 -14z"
        />
        <path d="M360 466 c0 -8 -3 -21 -6 -30 -4 -12 0 -16 16 -16 16 0 20 4 16 16
-3 9 -6 22 -6 30 0 8 -4 14 -10 14 -5 0 -10 -6 -10 -14z"
        />
        <path d="M20 325 l0 -145 90 0 90 0 0 -70 c0 -56 -3 -70 -15 -70 -8 0 -15 -4
-15 -10 0 -6 33 -10 80 -10 47 0 80 4 80 10 0 6 -7 10 -15 10 -12 0 -15 14
-15 70 l0 70 90 0 90 0 0 145 0 145 -45 0 c-25 0 -45 -4 -45 -10 0 -5 16 -10
35 -10 l35 0 0 -125 0 -125 -210 0 -210 0 0 125 0 125 35 0 c19 0 35 5 35 10
0 6 -20 10 -45 10 l-45 0 0 -145z m260 -215 l0 -70 -30 0 -30 0 0 70 0 70 30
0 30 0 0 -70z"
        />
        <path d="M150 460 c0 -5 18 -10 40 -10 22 0 40 5 40 10 0 6 -18 10 -40 10 -22
0 -40 -4 -40 -10z"
        />
        <path d="M270 460 c0 -5 18 -10 40 -10 22 0 40 5 40 10 0 6 -18 10 -40 10 -22
0 -40 -4 -40 -10z"
        />
    </g>

    <g id="printer">
        <path d="M110 416 l0 -65 -42 -3 -43 -3 0 -115 0 -115 43 -3 42 -3 0 -45 0
-44 140 0 140 0 0 44 0 45 43 3 42 3 0 115 0 115 -42 3 -43 3 0 65 0 64 -140
0 -140 0 0 -64z m260 -11 l0 -55 -120 0 -120 0 0 55 0 55 120 0 120 0 0 -55z
m90 -175 l0 -100 -35 0 c-35 0 -35 0 -35 45 l0 45 -140 0 -140 0 0 -45 c0 -45
0 -45 -35 -45 l-35 0 0 100 0 100 210 0 210 0 0 -100z m-90 -110 l0 -80 -120
0 -120 0 0 80 0 80 120 0 120 0 0 -80z"
        />
        <path d="M394 289 c-10 -17 13 -36 27 -22 12 12 4 33 -11 33 -5 0 -12 -5 -16
-11z"
        />
        <path d="M160 160 c0 -6 37 -10 90 -10 53 0 90 4 90 10 0 6 -37 10 -90 10 -53
0 -90 -4 -90 -10z"
        />
        <path d="M160 120 c0 -6 30 -10 70 -10 40 0 70 4 70 10 0 6 -30 10 -70 10 -40
0 -70 -4 -70 -10z"
        />
        <path d="M160 80 c0 -6 37 -10 90 -10 53 0 90 4 90 10 0 6 -37 10 -90 10 -53
0 -90 -4 -90 -10z"
        />
    </g>

    <g id="mounting">
        <path d="M2304 4936 c-43 -43 -47 -99 -10 -143 14 -16 174 -126 357 -244 183
-117 349 -229 367 -248 56 -56 87 -133 86 -216 -1 -90 -23 -136 -116 -246
-102 -121 -116 -164 -79 -244 l19 -40 -645 -646 -646 -647 -33 10 c-43 11
-135 -5 -178 -31 -17 -11 -156 -145 -308 -298 -242 -242 -278 -283 -278 -309
0 -35 35 -74 66 -74 33 0 60 24 339 301 243 242 274 269 303 269 18 0 45 -6
60 -14 15 -8 102 -90 195 -183 175 -176 196 -207 176 -261 -14 -38 -1325
-1350 -1367 -1368 -58 -26 -83 -9 -280 189 -180 182 -182 184 -182 227 l0 44
249 250 c165 166 252 261 257 279 9 40 -22 81 -66 85 -31 3 -47 -11 -287 -250
-171 -170 -261 -268 -276 -298 -29 -59 -30 -158 -3 -215 29 -59 389 -418 446
-444 65 -30 152 -28 216 4 37 19 208 183 730 707 761 763 723 717 711 846 l-7
67 357 357 c321 322 356 360 356 389 0 21 -7 38 -22 51 -52 41 -53 41 -428
-334 l-353 -353 -135 135 -135 135 638 638 637 637 135 -135 135 -135 -144
-144 c-123 -123 -144 -149 -144 -175 0 -41 28 -71 67 -71 27 0 52 20 175 144
l144 145 29 -15 c36 -19 118 -20 149 -3 13 7 63 47 111 89 91 81 152 110 229
110 54 0 136 -33 175 -71 32 -31 32 -31 27 -112 -8 -127 13 -170 145 -309 156
-163 215 -193 305 -154 18 8 145 128 284 267 271 274 274 278 258 367 -5 31
-29 60 -143 173 -118 117 -145 139 -195 158 -61 22 -131 27 -184 12 -30 -9
-35 -6 -89 50 -61 65 -62 66 -38 186 16 81 8 92 -239 341 -128 129 -263 260
-302 291 -202 166 -420 279 -665 345 -119 32 -833 166 -884 166 -30 0 -45 -7
-72 -34z m544 -196 c397 -74 501 -104 690 -199 184 -93 349 -228 654 -538
l138 -140 -16 -47 c-19 -55 -15 -137 10 -184 8 -16 38 -54 65 -84 l50 -55
-109 -108 -108 -108 -40 32 c-174 137 -396 123 -573 -36 -35 -32 -72 -65 -82
-72 -17 -13 -38 5 -253 220 -129 128 -234 238 -234 242 0 5 32 47 72 95 39 48
85 116 102 152 28 61 30 73 31 180 0 108 -2 119 -31 180 -52 109 -102 154
-352 316 -285 185 -332 217 -307 210 11 -3 143 -28 293 -56z m1887 -1300 c35
-13 235 -209 235 -229 0 -9 -104 -120 -230 -246 l-231 -230 -113 115 c-91 92
-116 124 -125 158 -22 79 -9 100 172 280 l163 162 52 0 c28 0 63 -4 77 -10z"
        />
    </g>

    <g id="burger" fill="currentColor" transform="scale(0.0045)">
        <path d="M823 4359 c-58 -29 -99 -79 -118 -144 -24 -83 -1 -167 62 -227 65
-62 -82 -58 2003 -58 2085 0 1938 -4 2003 58 63 60 86 144 62 227 -19 66 -60
116 -119 144 l-42 21 -1905 0 -1904 0 -42 -21z"/>
        <path d="M843 2984 c-61 -22 -120 -85 -139 -150 -34 -116 23 -229 140 -278 35
-15 213 -16 1926 -16 2050 0 1919 -3 1989 51 106 84 116 242 21 337 -78 78 88
72 -2014 71 -1638 0 -1886 -3 -1923 -15z"/>
        <path d="M823 1589 c-58 -29 -99 -79 -118 -144 -24 -83 -1 -167 62 -227 65
-62 -82 -58 2003 -58 2085 0 1938 -4 2003 58 63 60 86 144 62 227 -19 66 -60
116 -119 144 l-42 21 -1905 0 -1904 0 -42 -21z"/>
    </g>

    <g id="close" fill="currentColor" transform="scale(0.0055)">
    <path d="M1700 3410 c-28 -28 -34 -63 -16 -96 8 -16 179 -193 380 -394 l366
-365 -381 -382 c-376 -376 -382 -382 -375 -415 8 -41 39 -68 80 -68 27 0 72
41 408 377 l378 378 378 -378 c335 -334 382 -377 409 -377 17 0 39 3 48 6 23
9 47 61 40 87 -4 12 -176 192 -383 400 l-377 377 379 379 c335 335 379 383
379 410 0 42 -37 81 -77 81 -27 0 -75 -44 -406 -375 -206 -206 -379 -375 -385
-375 -5 0 -179 169 -385 375 -338 338 -379 375 -408 375 -19 0 -40 -8 -52 -20z"
        />
    </g>

    <g id="building_mini" fill="none" stroke="currentColor" stroke-width="2">
        <rect x="4" y="2" width="16" height="20" rx="2" />
        <line x1="8" y1="6" x2="16" y2="6" />
        <line x1="8" y1="10" x2="16" y2="10" />
        <line x1="8" y1="14" x2="12" y2="14" />
        <line x1="16" y1="14" x2="16" y2="14" />
        <line x1="8" y1="18" x2="12" y2="18" />
        <line x1="16" y1="18" x2="16" y2="18" />
    </g>

    <g id="people" fill="none" stroke="currentColor" stroke-width="2">
        <path d="M17 20h5v-2a3 3 0 00-5.356-1.857M17 20H7m10 0v-2c0-.656-.126-1.283-.356-1.857M7 20H2v-2a3 3 0 015.356-1.857M7 20v-2c0-.656.126-1.283.356-1.857m0 0a5.002 5.002 0 019.288 0M15 7a3 3 0 11-6 0 3 3 0 016 0zm6 3a2 2 0 11-4 0 2 2 0 014 0zM7 10a2 2 0 11-4 0 2 2 0 014 0z" />
    </g>

    <g id="fine" fill="none" stroke="currentColor" stroke-width="2">
        <path d="M9 12l2 2 4-4m6 2a9 9 0 11-18 0 9 9 0 0118 0z" />
    </g>

    <g id="picture" fill="none" stroke="currentColor" stroke-width="2">
        <path d="M4 16l4.586-4.586a2 2 0 012.828 0L16 16m-2-2l1.586-1.586a2 2 0 012.828 0L20 14m-6-6h.01M6 20h12a2 2 0 002-2V6a2 2 0 00-2-2H6a2 2 0 00-2 2v12a2 2 0 002 2z" />
    </g>

    <g id="lock" fill="none" stroke="currentColor" stroke-width="2">
        <path d="M12 15v2m-6 4h12a2 2 0 002-2v-6a2 2 0 00-2-2H6a2 2 0 00-2 2v6a2 2 0 002 2zm10-10V7a4 4 0 00-8 0v4h8z" />
    </g>

    <g id="gmail" fill="currentColor" transform="scale(0.0046)">
        <path d="M193 4256 c-94 -30 -161 -98 -183 -187 -7 -31 -10 -488 -8 -1534 l3
                -1490 30 -54 c17 -30 48 -67 69 -83 86 -62 -81 -58 2456 -58 2537 0 2370 -4
                2456 58 21 16 53 53 69 83 l30 54 0 1515 0 1515 -30 54 c-16 30 -48 67 -69 83
                -86 62 82 58 -2460 57 -1880 0 -2329 -3 -2363 -13z m4547 -200 c-8 -7 -475
                -358 -1037 -779 -685 -514 -1034 -769 -1060 -776 -49 -14 -117 -14 -166 0 -26
                7 -375 262 -1060 776 -562 421 -1029 772 -1037 779 -12 12 314 14 2180 14
                1866 0 2192 -2 2180 -14z m-3460 -921 c580 -435 1074 -799 1098 -808 24 -10
                74 -23 112 -29 84 -14 187 0 265 36 27 13 525 380 1105 815 l1055 792 3 -685
                c1 -377 1 -994 0 -1370 l-3 -685 -555 685 c-305 377 -562 690 -571 695 -27 14
                -77 11 -104 -7 -28 -19 -47 -67 -39 -101 4 -14 260 -339 570 -722 l564 -696
                -1110 -3 c-611 -1 -1609 -1 -2220 0 l-1110 3 564 696 c310 383 566 708 570
                722 8 34 -11 82 -39 101 -25 16 -71 21 -100 10 -8 -4 -264 -313 -567 -688
                -303 -374 -555 -685 -559 -690 -5 -6 -9 584 -9 1363 0 1095 3 1371 13 1365 6
                -5 487 -364 1067 -799z"
        />
    </g>

    <g id="telegram" fill="currentColor" transform="scale(0.0046)">
        <path
                d="M4860 4841 c-86 -27 -4742 -1887 -4772 -1907 -64 -41 -99 -136 -79
                -211 13 -49 56 -106 96 -127 17 -9 306 -122 644 -251 338 -129 616 -236 618
                -238 2 -2 82 -302 178 -666 96 -364 180 -671 186 -684 49 -96 175 -139 269
                -92 14 7 182 126 373 264 l349 250 91 -63 c319 -220 1190 -807 1218 -822 22
                -12 56 -18 96 -19 52 0 68 4 105 30 26 18 52 48 65 75 30 60 827 4236 820
                4292 -16 120 -144 204 -257 169z m-900 -835 c-36 -35 -488 -469 -1005 -966
                -1094 -1049 -1090 -1046 -1100 -1090 -4 -17 -10 -28 -14 -23 -4 4 -32 100 -61
                212 -57 215 -80 265 -138 295 -16 8 -212 85 -437 171 -225 86 -415 160 -423
                164 -10 6 277 124 879 364 492 196 1220 486 1619 646 399 159 729 290 735 290
                5 1 -19 -28 -55 -63z m628 -3 c-5 -27 -143 -751 -307 -1611 -164 -859 -300
                -1565 -303 -1567 -7 -8 -1608 1078 -1605 1087 3 10 2210 2137 2218 2137 3 1 2
                -20 -3 -46z m-2444 -2433 c118 -80 215 -147 215 -150 0 -9 -320 -232 -325
                -227 -3 3 -37 124 -75 269 -38 144 -72 272 -76 283 -5 18 -3 17 20 -5 14 -14
                122 -90 241 -170z"
        />
    </g>

    <g id="max" fill="currentColor" transform="scale(0.0024)">
        <path
                d="M4906 10100 c-1330 -98 -2450 -598 -3306 -1476 -792 -812 -1265
                -1860 -1395 -3089 -22 -206 -31 -743 -16 -965 25 -361 78 -708 177 -1150 20
                -85 104 -429 189 -765 252 -1000 315 -1346 330 -1810 4 -104 13 -223 20 -264
                52 -267 238 -391 589 -391 271 0 574 84 903 251 232 118 409 242 550 386 l91
                94 144 -94 c567 -369 840 -487 1328 -571 251 -44 434 -59 715 -59 267 -1 419
                9 655 44 811 118 1586 443 2275 954 363 268 732 635 1008 1002 578 767 929
                1763 966 2738 39 1066 -243 2076 -834 2975 -479 731 -1130 1314 -1895 1696
                -523 261 -1052 415 -1650 479 -171 19 -671 27 -844 15z m599 -2454 c295 -44
                547 -124 805 -252 741 -371 1249 -1081 1377 -1924 23 -157 23 -482 0 -641 -81
                -546 -330 -1034 -732 -1434 -410 -407 -904 -652 -1485 -736 -129 -19 -462 -16
                -600 4 -332 50 -668 173 -943 347 l-98 62 -68 -59 c-37 -32 -115 -99 -173
                -149 -254 -220 -412 -283 -523 -210 -90 59 -210 337 -295 680 -130 527 -170
                1222 -105 1831 59 558 212 1000 490 1420 116 175 218 297 373 446 196 189 371
                312 607 425 222 106 430 167 678 199 144 18 548 13 692 -9z"
        />
    </g>

    <g id="phone" fill="currentColor" transform="scale(0.0045)">
        <path d="M853 4966 c-80 -26 -138 -75 -369 -308 -247 -251 -270 -281 -316
-428 -21 -67 -23 -94 -23 -255 0 -216 18 -314 100 -560 200 -600 628 -1252
1215 -1849 578 -589 1217 -1036 1813 -1271 450 -176 842 -202 1092 -72 47 24
114 84 306 276 295 294 304 308 304 461 0 159 5 153 -429 587 -398 398 -416
413 -532 432 -34 5 -81 5 -112 1 -105 -17 -149 -47 -329 -223 -189 -185 -188
-184 -317 -174 -186 14 -458 152 -756 383 -139 108 -405 370 -520 514 -228
286 -383 588 -397 776 -10 129 -10 128 171 314 175 179 209 229 225 331 11 68
-1 144 -34 217 -22 49 -79 110 -398 428 -424 423 -427 425 -571 431 -50 2 -97
-2 -123 -11z m193 -142 c49 -20 745 -710 776 -769 29 -55 29 -146 0 -200 -11
-22 -72 -91 -134 -152 l-113 -113 -490 490 -490 490 115 115 c63 64 133 124
155 135 49 24 128 26 181 4z m-53 -842 l488 -488 -20 -62 c-91 -270 127 -740
560 -1208 344 -372 744 -654 1064 -750 117 -35 282 -40 359 -10 l48 19 492
-492 491 -491 -65 -65 c-121 -122 -243 -161 -474 -152 -164 7 -277 28 -467 91
-807 263 -1769 1011 -2429 1887 -467 620 -739 1227 -757 1684 -8 219 29 337
143 456 37 38 70 69 73 69 3 0 226 -220 494 -488z m3067 -2162 c54 -28 746
-727 765 -772 21 -51 19 -134 -4 -183 -11 -22 -70 -91 -135 -155 l-116 -115
-490 490 -490 490 108 108 c112 113 153 145 206 158 42 11 113 1 156 -21z"/>
        <path d="M2474 4473 c-6 -4 -17 -19 -23 -31 -15 -28 0 -77 27 -87 9 -3 77 -10
151 -16 465 -33 867 -220 1191 -556 136 -140 227 -266 309 -423 128 -249 191
-481 207 -760 7 -132 19 -160 65 -160 76 0 86 32 69 225 -42 485 -235 901
-574 1241 -294 294 -641 474 -1061 550 -93 17 -345 29 -361 17z"/>
        <path d="M2466 3877 c-32 -32 -33 -61 -3 -91 20 -19 37 -24 117 -29 558 -34
1019 -428 1145 -980 9 -37 20 -120 24 -183 10 -130 22 -154 76 -154 51 0 65
24 65 116 0 180 -51 379 -145 569 -78 157 -161 270 -288 392 -236 225 -534
356 -869 379 -94 7 -97 6 -122 -19z"/>
        <path d="M2490 3312 c-30 -10 -50 -36 -50 -64 0 -45 28 -64 106 -72 190 -20
330 -88 452 -221 99 -108 172 -286 172 -418 0 -86 68 -127 120 -72 21 23 22
30 16 103 -12 143 -52 263 -127 378 -118 180 -298 305 -500 347 -87 18 -168
27 -189 19z"/>
    </g>
</svg>
