<svg xmlns="http://www.w3.org/2000/svg">

<g id="format">
        <path d="M932 5104 c-468 -78 -840 -454 -917 -925 -23 -142 -23 -3096 0 -3238
78 -476 451 -849 930 -926 135 -22 3082 -22 3228 0 455 69 806 400 924 874 15
60 17 215 20 1606 3 1021 1 1570 -6 1630 -16 133 -46 237 -105 360 -161 336
-462 560 -829 620 -132 21 -3117 21 -3245 -1z m3198 -275 c178 -28 324 -104
456 -234 137 -135 214 -282 244 -467 14 -88 14 -3049 -1 -3138 -56 -353 -333
-634 -684 -695 -76 -13 -290 -15 -1585 -15 -1307 0 -1509 2 -1586 15 -349 61
-627 345 -683 695 -15 90 -15 3050 0 3140 29 178 104 324 234 456 131 132 269
207 440 239 91 17 3062 21 3165 4z"/>
    </g>

    <g id="location">
        <path d="M4335 12789 c-1496 -104 -2843 -915 -3635 -2190 -232 -373 -414 -787
        -529 -1204 -305 -1107 -197 -2278 305 -3295 191 -387 372 -660 676 -1020 34
        -41 753 -976 1596 -2077 918 -1199 1555 -2022 1588 -2052 186 -170 442 -170
        628 0 33 30 670 853 1588 2052 843 1101 1562 2036 1596 2077 304 360 485 633
        676 1020 566 1147 629 2502 174 3695 -353 923 -967 1689 -1798 2242 -825 549
        -1864 821 -2865 752z m559 -2254 c224 -29 398 -81 601 -180 553 -268 931 -756
        1062 -1374 25 -116 27 -145 28 -366 0 -267 -10 -345 -70 -555 -161 -561 -586
        -1032 -1130 -1253 -201 -82 -365 -120 -592 -139 -294 -25 -593 23 -878 139
        -544 221 -969 692 -1130 1253 -60 210 -70 288 -70 555 1 221 3 250 28 366 112
        527 406 965 842 1252 177 116 437 227 637 271 209 46 467 58 672 31z"
        />
    </g>

    <g id="building">
        <path d="M100 315 c0 -103 4 -165 10 -165 6 0 10 58 10 155 l0 155 160 0 160
0 -2 -201 c-3 -180 -5 -203 -21 -213 -28 -18 -52 4 -55 53 l-3 41 -160 0 -159
0 0 -40 c0 -27 7 -47 20 -60 18 -18 33 -20 190 -20 228 0 210 -21 210 250 l0
210 -180 0 -180 0 0 -165z m240 -219 c0 -13 3 -31 6 -40 5 -14 -10 -16 -128
-16 -145 0 -158 4 -158 52 l0 28 140 0 140 0 0 -24z"
        />
    </g>

    <g id="billboard">
        <path d="M120 466 c0 -8 -3 -21 -6 -30 -4 -12 0 -16 16 -16 16 0 20 4 16 16
-3 9 -6 22 -6 30 0 8 -4 14 -10 14 -5 0 -10 -6 -10 -14z"
        />
        <path d="M240 466 c0 -8 -3 -21 -6 -30 -4 -12 0 -16 16 -16 16 0 20 4 16 16
-3 9 -6 22 -6 30 0 8 -4 14 -10 14 -5 0 -10 -6 -10 -14z"
        />
        <path d="M360 466 c0 -8 -3 -21 -6 -30 -4 -12 0 -16 16 -16 16 0 20 4 16 16
-3 9 -6 22 -6 30 0 8 -4 14 -10 14 -5 0 -10 -6 -10 -14z"
        />
        <path d="M20 325 l0 -145 90 0 90 0 0 -70 c0 -56 -3 -70 -15 -70 -8 0 -15 -4
-15 -10 0 -6 33 -10 80 -10 47 0 80 4 80 10 0 6 -7 10 -15 10 -12 0 -15 14
-15 70 l0 70 90 0 90 0 0 145 0 145 -45 0 c-25 0 -45 -4 -45 -10 0 -5 16 -10
35 -10 l35 0 0 -125 0 -125 -210 0 -210 0 0 125 0 125 35 0 c19 0 35 5 35 10
0 6 -20 10 -45 10 l-45 0 0 -145z m260 -215 l0 -70 -30 0 -30 0 0 70 0 70 30
0 30 0 0 -70z"
        />
        <path d="M150 460 c0 -5 18 -10 40 -10 22 0 40 5 40 10 0 6 -18 10 -40 10 -22
0 -40 -4 -40 -10z"
        />
        <path d="M270 460 c0 -5 18 -10 40 -10 22 0 40 5 40 10 0 6 -18 10 -40 10 -22
0 -40 -4 -40 -10z"
        />
    </g>

    <g id="printer">
        <path d="M110 416 l0 -65 -42 -3 -43 -3 0 -115 0 -115 43 -3 42 -3 0 -45 0
-44 140 0 140 0 0 44 0 45 43 3 42 3 0 115 0 115 -42 3 -43 3 0 65 0 64 -140
0 -140 0 0 -64z m260 -11 l0 -55 -120 0 -120 0 0 55 0 55 120 0 120 0 0 -55z
m90 -175 l0 -100 -35 0 c-35 0 -35 0 -35 45 l0 45 -140 0 -140 0 0 -45 c0 -45
0 -45 -35 -45 l-35 0 0 100 0 100 210 0 210 0 0 -100z m-90 -110 l0 -80 -120
0 -120 0 0 80 0 80 120 0 120 0 0 -80z"
        />
        <path d="M394 289 c-10 -17 13 -36 27 -22 12 12 4 33 -11 33 -5 0 -12 -5 -16
-11z"
        />
        <path d="M160 160 c0 -6 37 -10 90 -10 53 0 90 4 90 10 0 6 -37 10 -90 10 -53
0 -90 -4 -90 -10z"
        />
        <path d="M160 120 c0 -6 30 -10 70 -10 40 0 70 4 70 10 0 6 -30 10 -70 10 -40
0 -70 -4 -70 -10z"
        />
        <path d="M160 80 c0 -6 37 -10 90 -10 53 0 90 4 90 10 0 6 -37 10 -90 10 -53
0 -90 -4 -90 -10z"
        />
    </g>

    <g id="mounting">
        <path d="M2304 4936 c-43 -43 -47 -99 -10 -143 14 -16 174 -126 357 -244 183
-117 349 -229 367 -248 56 -56 87 -133 86 -216 -1 -90 -23 -136 -116 -246
-102 -121 -116 -164 -79 -244 l19 -40 -645 -646 -646 -647 -33 10 c-43 11
-135 -5 -178 -31 -17 -11 -156 -145 -308 -298 -242 -242 -278 -283 -278 -309
0 -35 35 -74 66 -74 33 0 60 24 339 301 243 242 274 269 303 269 18 0 45 -6
60 -14 15 -8 102 -90 195 -183 175 -176 196 -207 176 -261 -14 -38 -1325
-1350 -1367 -1368 -58 -26 -83 -9 -280 189 -180 182 -182 184 -182 227 l0 44
249 250 c165 166 252 261 257 279 9 40 -22 81 -66 85 -31 3 -47 -11 -287 -250
-171 -170 -261 -268 -276 -298 -29 -59 -30 -158 -3 -215 29 -59 389 -418 446
-444 65 -30 152 -28 216 4 37 19 208 183 730 707 761 763 723 717 711 846 l-7
67 357 357 c321 322 356 360 356 389 0 21 -7 38 -22 51 -52 41 -53 41 -428
-334 l-353 -353 -135 135 -135 135 638 638 637 637 135 -135 135 -135 -144
-144 c-123 -123 -144 -149 -144 -175 0 -41 28 -71 67 -71 27 0 52 20 175 144
l144 145 29 -15 c36 -19 118 -20 149 -3 13 7 63 47 111 89 91 81 152 110 229
110 54 0 136 -33 175 -71 32 -31 32 -31 27 -112 -8 -127 13 -170 145 -309 156
-163 215 -193 305 -154 18 8 145 128 284 267 271 274 274 278 258 367 -5 31
-29 60 -143 173 -118 117 -145 139 -195 158 -61 22 -131 27 -184 12 -30 -9
-35 -6 -89 50 -61 65 -62 66 -38 186 16 81 8 92 -239 341 -128 129 -263 260
-302 291 -202 166 -420 279 -665 345 -119 32 -833 166 -884 166 -30 0 -45 -7
-72 -34z m544 -196 c397 -74 501 -104 690 -199 184 -93 349 -228 654 -538
l138 -140 -16 -47 c-19 -55 -15 -137 10 -184 8 -16 38 -54 65 -84 l50 -55
-109 -108 -108 -108 -40 32 c-174 137 -396 123 -573 -36 -35 -32 -72 -65 -82
-72 -17 -13 -38 5 -253 220 -129 128 -234 238 -234 242 0 5 32 47 72 95 39 48
85 116 102 152 28 61 30 73 31 180 0 108 -2 119 -31 180 -52 109 -102 154
-352 316 -285 185 -332 217 -307 210 11 -3 143 -28 293 -56z m1887 -1300 c35
-13 235 -209 235 -229 0 -9 -104 -120 -230 -246 l-231 -230 -113 115 c-91 92
-116 124 -125 158 -22 79 -9 100 172 280 l163 162 52 0 c28 0 63 -4 77 -10z"
        />
    </g>

    <g id="burger" fill="currentColor" transform="scale(0.0045)">
        <path d="M823 4359 c-58 -29 -99 -79 -118 -144 -24 -83 -1 -167 62 -227 65
-62 -82 -58 2003 -58 2085 0 1938 -4 2003 58 63 60 86 144 62 227 -19 66 -60
116 -119 144 l-42 21 -1905 0 -1904 0 -42 -21z"/>
        <path d="M843 2984 c-61 -22 -120 -85 -139 -150 -34 -116 23 -229 140 -278 35
-15 213 -16 1926 -16 2050 0 1919 -3 1989 51 106 84 116 242 21 337 -78 78 88
72 -2014 71 -1638 0 -1886 -3 -1923 -15z"/>
        <path d="M823 1589 c-58 -29 -99 -79 -118 -144 -24 -83 -1 -167 62 -227 65
-62 -82 -58 2003 -58 2085 0 1938 -4 2003 58 63 60 86 144 62 227 -19 66 -60
116 -119 144 l-42 21 -1905 0 -1904 0 -42 -21z"/>
    </g>

    <g id="close" fill="currentColor" transform="scale(0.0055)">
    <path d="M1700 3410 c-28 -28 -34 -63 -16 -96 8 -16 179 -193 380 -394 l366
-365 -381 -382 c-376 -376 -382 -382 -375 -415 8 -41 39 -68 80 -68 27 0 72
41 408 377 l378 378 378 -378 c335 -334 382 -377 409 -377 17 0 39 3 48 6 23
9 47 61 40 87 -4 12 -176 192 -383 400 l-377 377 379 379 c335 335 379 383
379 410 0 42 -37 81 -77 81 -27 0 -75 -44 -406 -375 -206 -206 -379 -375 -385
-375 -5 0 -179 169 -385 375 -338 338 -379 375 -408 375 -19 0 -40 -8 -52 -20z"
        />
    </g>
</svg>
