<?xml version="1.0" standalone="no"?>
<!DOCTYPE svg PUBLIC "-//W3C//DTD SVG 20010904//EN"
        "http://www.w3.org/TR/2001/REC-SVG-20010904/DTD/svg10.dtd">
<svg version="1.0" xmlns="http://www.w3.org/2000/svg"
     width="700pt" viewBox="0 0 1280.000000 853.000000"
     preserveAspectRatio="xMidYMid meet">

    <g transform="translate(0.000000,853.000000) scale(0.100000,-0.100000)"
       fill="white" stroke="none">
        <path d="M2809 7377 c-230 -141 -556 -351 -566 -364 -9 -12 -13 -59 -13 -147
l0 -131 -48 -26 c-26 -14 -103 -57 -172 -94 -69 -37 -128 -72 -132 -78 -4 -7
-8 -1140 -8 -2519 l0 -2508 -58 0 c-87 0 -122 -34 -92 -91 11 -19 45 -19 2158
-19 1657 0 2151 3 2160 12 7 7 12 24 12 39 0 39 -33 59 -97 59 l-53 0 0 310
c0 260 2 314 15 334 14 20 15 252 13 2024 -2 1100 -6 2004 -10 2008 -4 4 -108
34 -230 68 l-223 62 -3 65 -3 66 67 54 66 55 111 -33 c62 -17 120 -32 129 -33
10 0 46 35 82 78 53 62 65 84 65 112 1 19 -3 40 -7 46 -7 10 -166 61 -222 71
-20 4 -38 -6 -77 -39 -221 -189 -302 -261 -307 -274 -3 -9 -6 -42 -6 -75 0
-32 -4 -59 -9 -59 -9 0 -539 146 -653 180 l-68 21 0 58 c0 58 1 60 51 105 28
25 56 46 63 46 6 0 58 -14 116 -30 58 -17 113 -30 122 -30 18 0 119 119 139
164 16 35 4 72 -28 84 -79 31 -205 64 -225 58 -13 -3 -48 -30 -78 -59 -30 -30
-95 -89 -145 -132 -49 -42 -96 -84 -103 -93 -7 -9 -12 -44 -12 -80 0 -56 -2
-63 -17 -58 -63 18 -498 140 -589 165 -172 47 -164 42 -164 100 0 48 2 51 55
97 l56 47 114 -32 c63 -18 125 -31 137 -29 14 2 44 31 80 78 46 60 58 82 58
111 0 20 -6 41 -12 46 -15 12 -220 73 -243 73 -8 0 -52 -35 -98 -77 -46 -43
-118 -109 -160 -146 -60 -53 -77 -74 -77 -95 0 -15 -3 -43 -6 -63 l-6 -37 -72
20 c-39 11 -95 26 -123 34 l-53 15 0 168 c0 123 -3 171 -12 178 -13 10 -508
173 -525 173 -5 0 -34 -15 -64 -33z m312 -158 l189 -61 0 -120 c0 -107 -2
-119 -16 -114 -9 4 -37 11 -62 18 -32 8 -49 19 -61 40 -9 15 -25 31 -36 34
-11 4 -34 17 -51 30 -17 13 -62 36 -100 51 l-69 28 -5 78 c-4 60 -2 77 8 77 8
0 99 -27 203 -61z m-291 -42 l0 -83 -115 -69 c-63 -38 -117 -75 -119 -82 -3
-8 5 -18 18 -24 20 -10 37 -4 115 35 50 25 93 46 96 46 3 0 5 -1235 5 -2745
l0 -2745 -425 0 -425 0 0 2483 0 2483 88 47 c344 185 517 286 520 305 4 24
-34 62 -60 62 -11 0 -54 -20 -97 -45 -43 -25 -81 -45 -84 -45 -4 0 -7 35 -7
78 l0 79 108 66 c59 37 166 105 237 151 72 47 133 85 138 85 4 1 7 -36 7 -82z
m1258 -53 c32 -9 60 -19 64 -23 4 -3 -7 -23 -25 -44 l-32 -37 -60 16 c-33 10
-64 21 -69 26 -6 5 4 22 24 43 19 19 36 35 38 35 2 0 29 -7 60 -16z m-1055
-144 c65 -22 78 -32 57 -45 -7 -4 -10 -920 -10 -2716 l0 -2709 -70 0 -70 0 0
2751 c0 2197 3 2750 13 2746 6 -2 42 -14 80 -27z m1937 -91 c25 -7 47 -14 49
-15 8 -6 -62 -82 -73 -79 -6 2 -37 11 -70 20 l-59 16 39 40 c22 22 45 37 54
35 8 -3 35 -10 60 -17z m-1595 -99 c83 -23 180 -50 218 -61 l67 -20 0 -61 c0
-58 -1 -60 -22 -54 -307 80 -319 82 -334 62 -11 -16 -14 -63 -14 -222 l0 -203
-46 14 c-25 7 -48 16 -51 18 -3 4 -7 533 -4 570 1 5 9 6 19 3 9 -3 85 -24 167
-46z m2447 -106 c62 -18 62 -18 16 -72 l-26 -32 -72 22 -72 22 40 38 c23 21
44 38 48 38 4 0 34 -7 66 -16z m-1874 -54 c97 -27 269 -75 382 -108 l205 -58
3 -43 c2 -24 1 -49 -2 -57 -5 -14 3 -16 -576 140 -221 60 -200 48 -200 117 0
32 2 59 5 59 3 0 85 -22 183 -50z m-404 -126 c222 -61 607 -165 681 -184 39
-10 189 -51 335 -90 295 -79 897 -239 1005 -267 l70 -18 3 -1743 c2 -1562 0
-1742 -13 -1742 -18 0 -634 60 -920 90 -269 28 -886 87 -1104 105 -102 9 -188
18 -193 21 -9 6 -11 3864 -2 3864 3 0 65 -16 138 -36z m1333 -135 c245 -68
379 -106 438 -123 39 -12 40 -13 43 -66 3 -51 2 -52 -20 -47 -13 4 -177 48
-365 99 l-343 92 0 53 c0 40 4 53 14 53 8 0 113 -27 233 -61z m943 -501 c0
-252 2 -245 -47 -232 -23 6 -23 8 -23 190 0 214 9 198 -125 232 -44 11 -99 26
-122 32 l-43 11 0 53 0 53 180 -50 180 -50 0 -239z m-2532 272 c1 0 2 -1042 2
-2315 l0 -2315 -54 0 -54 0 3 2323 c1 1277 3 2325 4 2329 0 4 22 1 49 -7 26
-8 48 -15 50 -15z m2515 -608 c16 -7 17 -90 18 -1641 0 -898 -1 -1634 -3
-1635 -2 -1 -66 3 -143 10 -126 11 -1424 129 -1870 170 -99 9 -238 21 -310 28
l-130 11 0 45 0 45 35 -3 c76 -5 606 -53 800 -72 113 -11 435 -42 715 -70 281
-27 575 -56 655 -63 89 -9 152 -11 163 -5 16 8 17 94 17 1598 0 1508 1 1590
18 1589 9 0 25 -4 35 -7z m-2293 -3178 c105 -8 104 -7 75 -50 -22 -33 -24 -40
-12 -58 8 -12 26 -22 40 -24 20 -3 33 7 68 52 38 48 48 56 78 56 18 0 209 -16
425 -35 215 -19 495 -44 621 -55 127 -11 275 -25 330 -30 55 -5 139 -12 186
-16 111 -8 122 -14 86 -52 -31 -32 -33 -44 -11 -66 30 -30 60 -19 110 39 l48
55 65 -5 c37 -3 90 -8 119 -11 l52 -5 0 -320 0 -319 -155 0 -155 0 0 234 c0
189 -3 237 -14 249 -20 19 -261 33 -282 16 -11 -9 -14 -57 -14 -255 l0 -244
-90 0 -90 0 0 254 c0 191 -3 256 -12 263 -7 5 -130 17 -273 27 -143 9 -326 22
-407 28 -117 8 -151 8 -163 -2 -13 -11 -15 -54 -15 -291 l0 -279 -95 0 -95 0
0 290 c0 265 -1 290 -17 298 -30 15 -263 24 -279 11 -11 -9 -14 -66 -14 -305
l0 -294 -145 0 -145 0 0 431 0 431 53 -6 c28 -3 86 -8 127 -12z m328 -591 l2
-253 -60 0 -60 0 0 255 0 256 58 -3 57 -3 3 -252z m511 221 l31 -6 0 -234 0
-234 -85 0 -85 0 0 240 0 240 54 0 c29 0 68 -3 85 -6z m242 -14 l59 0 0 -230
0 -230 -90 0 -90 0 0 236 0 237 31 -7 c17 -3 58 -6 90 -6z m267 -20 l42 0 0
-220 0 -220 -80 0 -80 0 0 226 0 227 38 -7 c20 -3 56 -6 80 -6z m476 -26 l46
-7 0 -203 0 -204 -60 0 -60 0 0 210 c0 170 3 210 14 210 7 0 34 -3 60 -6z"/>
        <path d="M2574 6610 c-55 -26 -104 -55 -107 -65 -4 -9 -7 -72 -7 -140 0 -162
-1 -162 130 -105 55 24 106 50 113 58 13 16 15 271 2 291 -10 17 -23 13 -131
-39z m66 -135 l0 -74 -46 -21 c-26 -11 -48 -20 -50 -20 -2 0 -4 33 -4 74 l0
73 48 21 c26 12 48 21 50 22 1 0 2 -34 2 -75z"/>
        <path d="M2208 6439 c-57 -28 -106 -55 -109 -61 -9 -14 1 -271 11 -281 7 -8
188 64 218 86 19 15 17 293 -2 300 -8 3 -61 -17 -118 -44z m62 -133 l0 -73
-43 -17 c-23 -9 -46 -16 -50 -16 -4 0 -7 31 -7 68 l0 68 43 21 c23 12 45 22
50 22 4 1 7 -32 7 -73z"/>
        <path d="M2580 6154 c-57 -24 -108 -50 -112 -57 -12 -18 -6 -266 6 -283 10
-12 26 -9 116 25 57 22 110 47 117 57 9 12 12 55 12 143 -1 117 -9 162 -27
160 -4 0 -54 -20 -112 -45z m58 -140 l-3 -76 -47 -19 -48 -19 0 76 0 75 43 19
c23 10 46 19 50 19 4 1 7 -33 5 -75z"/>
        <path d="M2207 5996 c-55 -24 -103 -49 -108 -57 -12 -20 -11 -236 1 -260 6
-10 16 -19 23 -19 7 0 57 18 112 39 l100 39 0 148 c0 125 -2 149 -15 151 -8 0
-59 -18 -113 -41z m63 -135 l0 -69 -40 -16 c-22 -9 -45 -16 -50 -16 -6 0 -10
29 -10 65 l0 66 43 19 c23 11 45 20 50 20 4 0 7 -31 7 -69z"/>
        <path d="M2575 5692 c-117 -44 -113 -36 -114 -203 -1 -155 -2 -154 132 -109
56 19 108 41 115 49 17 20 17 272 0 289 -17 17 -20 16 -133 -26z m65 -141 l0
-79 -44 -11 c-25 -6 -47 -11 -50 -11 -3 0 -6 33 -6 73 l0 73 48 16 c26 9 48
17 50 17 1 1 2 -34 2 -78z"/>
        <path d="M2200 5551 c-94 -36 -95 -37 -102 -76 -11 -61 2 -246 18 -252 13 -5
185 48 212 65 9 7 12 44 10 153 -4 171 4 166 -138 110z m70 -136 l0 -74 -32
-9 c-18 -6 -41 -13 -50 -17 -16 -6 -18 0 -18 64 l0 72 43 19 c23 11 45 20 50
20 4 0 7 -34 7 -75z"/>
        <path d="M2585 5234 c-55 -19 -106 -42 -113 -52 -17 -23 -13 -265 5 -283 10
-10 32 -6 105 16 147 44 138 31 138 193 0 94 -4 142 -12 150 -15 15 -4 17
-123 -24z m58 -86 c-2 -5 -3 -36 -3 -71 l0 -63 -50 -16 -50 -16 0 74 c0 74 0
74 33 88 33 15 74 17 70 4z"/>
        <path d="M2197 5107 c-49 -18 -92 -39 -97 -47 -4 -7 -6 -68 -4 -134 2 -67 4
-127 4 -133 0 -7 9 -13 21 -13 27 0 190 49 207 63 9 7 12 46 10 151 l-3 141
-25 2 c-14 1 -65 -12 -113 -30z m73 -137 c0 -76 -1 -77 -76 -96 l-25 -6 3 73
3 74 35 12 c59 20 60 19 60 -57z"/>
        <path d="M2572 4770 c-52 -16 -97 -31 -100 -35 -4 -4 -7 -70 -7 -146 1 -104 4
-142 14 -148 16 -10 222 44 233 61 13 21 10 272 -4 286 -17 17 -30 15 -136
-18z m68 -143 l0 -74 -39 -11 c-62 -19 -62 -19 -59 61 l3 72 35 12 c59 20 60
20 60 -60z"/>
        <path d="M2195 4662 l-90 -27 -5 -138 c-4 -105 -2 -141 8 -149 9 -8 43 -3 120
18 l107 29 3 148 3 147 -28 -1 c-16 0 -68 -12 -118 -27z m75 -136 l0 -74 -36
-6 c-19 -4 -42 -10 -50 -13 -13 -5 -14 7 -12 68 l3 73 45 12 c25 7 46 12 48
13 1 1 2 -32 2 -73z"/>
        <path d="M2575 4315 c-51 -14 -95 -31 -102 -41 -14 -19 -19 -237 -7 -268 4 -9
18 -16 33 -16 41 1 190 37 206 50 19 16 22 269 3 288 -16 16 -28 15 -133 -13z
m65 -144 l0 -79 -36 -6 c-19 -4 -42 -10 -50 -13 -13 -5 -14 7 -12 73 l3 78 45
12 c25 7 46 12 48 13 1 1 2 -34 2 -78z"/>
        <path d="M2210 4224 c-53 -14 -101 -33 -109 -42 -10 -13 -12 -45 -7 -142 4
-68 11 -129 15 -133 9 -9 125 12 199 35 l33 10 -3 146 c-3 122 -6 147 -18 149
-8 1 -58 -10 -110 -23z m60 -144 l0 -69 -37 -10 c-64 -18 -64 -18 -61 61 3 67
5 73 28 79 66 18 70 15 70 -61z"/>
        <path d="M2577 3866 c-57 -12 -102 -27 -107 -36 -11 -16 -14 -249 -4 -274 3
-9 16 -16 28 -16 38 0 196 38 211 50 12 10 15 40 15 137 0 122 -9 164 -33 162
-7 -1 -56 -11 -110 -23z m60 -222 c-2 -2 -25 -7 -51 -10 l-47 -7 3 74 3 73 45
11 45 11 3 -74 c2 -41 1 -76 -1 -78z"/>
        <path d="M2206 3785 c-54 -12 -101 -27 -105 -33 -3 -5 -5 -71 -3 -145 2 -99 7
-137 16 -140 7 -3 60 5 117 16 l104 22 0 150 c0 126 -2 150 -15 151 -8 1 -59
-8 -114 -21z m64 -144 c0 -75 3 -72 -68 -86 l-33 -7 3 73 c3 68 5 74 28 80 66
18 70 15 70 -60z"/>
        <path d="M2572 3411 c-54 -10 -97 -24 -103 -32 -12 -18 -11 -260 0 -279 8 -12
22 -12 103 -1 150 21 142 12 146 170 3 137 -3 162 -37 160 -9 -1 -58 -9 -109
-18z m68 -145 c0 -81 3 -77 -67 -91 l-33 -7 0 76 c0 74 0 76 28 82 15 3 32 7
37 9 32 11 35 4 35 -69z"/>
        <path d="M2190 3343 c-41 -8 -79 -19 -85 -24 -12 -12 -9 -269 4 -282 10 -10
210 18 224 32 4 4 6 70 5 147 l-3 139 -35 2 c-19 0 -69 -6 -110 -14z m80 -143
c0 -76 1 -74 -70 -82 -24 -3 -25 -1 -28 69 -3 72 -3 72 25 76 76 11 73 14 73
-63z"/>
        <path d="M2550 2956 c-72 -11 -75 -12 -81 -41 -4 -16 -7 -78 -8 -136 -1 -146
-3 -145 130 -129 57 7 110 17 117 22 13 11 18 231 6 276 -7 26 -38 27 -164 8z
m88 -221 c-2 -1 -24 -6 -50 -9 l-48 -7 0 75 c0 82 -2 80 70 88 24 3 25 1 28
-71 2 -40 2 -75 0 -76z"/>
        <path d="M2193 2906 c-46 -7 -85 -14 -87 -17 -3 -3 -6 -67 -7 -143 -1 -143 4
-161 41 -151 8 2 49 7 90 10 117 11 111 2 108 168 l-3 142 -30 1 c-16 1 -67
-4 -112 -10z m75 -148 l-3 -73 -47 -3 -48 -3 0 70 c0 76 0 76 73 80 l28 1 -3
-72z"/>
        <path d="M2576 2506 c-84 -9 -100 -14 -107 -31 -4 -11 -8 -75 -8 -141 -1 -93
2 -124 13 -133 20 -17 212 -3 232 16 10 11 14 41 13 116 0 126 -9 181 -29 183
-8 1 -60 -4 -114 -10z m64 -150 c0 -81 -4 -86 -66 -86 l-34 0 0 74 c0 81 0 81
73 85 l27 1 0 -74z"/>
        <path d="M2200 2468 c-47 -5 -89 -14 -95 -19 -11 -11 -11 -262 0 -279 8 -13
188 -4 218 12 15 8 17 25 17 147 0 143 -3 154 -43 150 -7 -1 -50 -6 -97 -11z
m68 -150 l-3 -73 -47 -3 -48 -3 0 69 c0 38 3 72 7 75 3 4 26 7 50 7 l44 0 -3
-72z"/>
        <path d="M2498 2053 c-19 -3 -28 -12 -32 -31 -7 -31 -6 -228 1 -254 4 -16 18
-18 113 -18 146 0 143 -4 139 159 -2 69 -7 132 -12 139 -9 12 -142 15 -209 5z
m142 -148 l0 -75 -34 0 c-19 0 -41 -3 -50 -6 -14 -5 -16 5 -16 75 l0 81 50 0
50 0 0 -75z"/>
        <path d="M2187 2033 c-72 -4 -79 -6 -87 -29 -10 -24 -5 -249 6 -265 9 -16 210
-11 223 5 8 9 11 59 9 152 l-3 139 -35 1 c-19 0 -70 -1 -113 -3z m83 -148 l0
-75 -50 0 -50 0 0 69 c0 68 1 70 28 74 75 11 72 15 72 -68z"/>
        <path d="M3685 6008 c-3 -7 -4 -704 -3 -1548 l3 -1535 55 -8 c161 -22 1027
-107 1095 -107 322 1 558 202 626 535 18 86 20 125 16 285 -4 164 -7 195 -31
275 -15 50 -44 121 -64 159 -44 83 -158 207 -225 246 l-48 27 51 33 c106 68
180 180 221 337 27 102 29 311 4 428 -46 216 -161 387 -338 503 -140 91 -173
102 -777 247 -232 55 -571 135 -576 135 -3 0 -7 -6 -9 -12z m638 -573 c418
-91 460 -105 544 -187 92 -90 138 -247 115 -394 -21 -133 -68 -209 -157 -250
-72 -34 -139 -31 -437 18 l-258 42 0 403 c0 358 2 403 16 403 8 0 88 -16 177
-35z m87 -1250 c129 -20 264 -43 299 -51 95 -22 183 -69 240 -128 95 -101 125
-198 119 -386 -3 -98 -9 -137 -27 -181 -45 -116 -146 -192 -272 -205 -60 -5
-124 0 -529 49 l-105 12 -3 468 -2 467 22 -5 c13 -2 129 -21 258 -40z"/>
        <path d="M10845 4191 c-251 -33 -431 -193 -480 -426 -22 -105 -21 -717 1 -818
38 -170 132 -294 278 -366 103 -51 181 -64 348 -59 106 3 146 9 198 27 170 61
278 171 338 346 l27 80 0 385 0 385 -27 72 c-36 101 -72 159 -138 223 -67 66
-130 102 -228 129 -83 23 -230 33 -317 22z m241 -349 c22 -11 55 -37 72 -56
56 -64 62 -106 62 -431 0 -346 -5 -374 -79 -445 -53 -52 -102 -70 -188 -70
-85 0 -144 23 -192 75 -66 72 -71 103 -71 449 1 357 6 381 98 460 56 48 220
58 298 18z"/>
        <path d="M6120 3360 l0 -830 159 0 159 0 85 158 c97 179 177 324 332 604 l110
196 3 -479 2 -479 170 0 170 0 0 830 0 831 -157 -3 -158 -3 -63 -115 c-82
-149 -238 -428 -366 -654 l-101 -179 -5 474 -5 474 -167 3 -168 2 0 -830z"/>
        <path d="M7747 4183 c-3 -5 -8 -107 -11 -228 -21 -703 -42 -911 -102 -1047
l-26 -57 -72 -3 -71 -3 -3 -304 c-1 -177 2 -307 7 -310 5 -3 79 -5 165 -3
l156 3 0 150 0 149 368 -2 367 -3 3 -147 3 -148 159 0 c157 0 160 0 165 23 3
12 4 150 3 307 l-3 285 -72 3 -73 3 -2 667 -3 667 -477 3 c-262 1 -479 -1
-481 -5z m641 -543 c2 -124 0 -352 -3 -507 l-7 -283 -209 0 c-208 0 -210 0
-199 20 37 69 64 304 75 660 3 96 8 212 11 258 l6 82 161 -2 162 -3 3 -225z"/>
        <path d="M9037 4184 c-4 -4 -7 -378 -7 -831 l0 -823 168 2 167 3 3 328 2 327
228 -2 227 -3 3 -327 2 -328 165 0 165 0 0 830 0 830 -162 -2 -163 -3 -3 -332
-2 -333 -230 0 -230 0 -2 333 -3 332 -161 3 c-88 1 -163 -1 -167 -4z"/>
    </g>
</svg>
